G04 MADE WITH FRITZING*
G04 WWW.FRITZING.ORG*
G04 SINGLE SIDED*
G04 HOLES NOT PLATED*
G04 CONTOUR ON CENTER OF CONTOUR VECTOR*
%ASAXBY*%
%FSLAX23Y23*%
%MOIN*%
%OFA0B0*%
%SFA1.0B1.0*%
%ADD10C,0.075000*%
%ADD11C,0.078000*%
%ADD12C,0.082000*%
%ADD13C,0.070000*%
%ADD14C,0.090551*%
%ADD15R,0.078000X0.078000*%
%ADD16R,0.082000X0.082000*%
%ADD17R,0.075000X0.075000*%
%ADD18C,0.032000*%
%ADD19C,0.020000*%
%ADD20C,0.023622*%
%ADD21R,0.001000X0.001000*%
%LNCOPPER0*%
G90*
G70*
G54D10*
X614Y1309D03*
X314Y1309D03*
G54D11*
X114Y734D03*
X114Y934D03*
X114Y1134D03*
G54D12*
X114Y1559D03*
X114Y1261D03*
X114Y609D03*
X114Y311D03*
X764Y334D03*
X764Y632D03*
X764Y1084D03*
X764Y984D03*
X764Y884D03*
G54D10*
X264Y1084D03*
X564Y1084D03*
X264Y984D03*
X564Y984D03*
X264Y884D03*
X564Y884D03*
X264Y784D03*
X564Y784D03*
G54D13*
X514Y484D03*
X514Y684D03*
X389Y484D03*
X389Y684D03*
G54D10*
X814Y1334D03*
X714Y1334D03*
X314Y1209D03*
X614Y1209D03*
G54D14*
X539Y1634D03*
X339Y1634D03*
X339Y184D03*
X539Y184D03*
G54D15*
X114Y734D03*
G54D16*
X764Y1084D03*
G54D17*
X264Y1084D03*
G54D18*
X839Y484D02*
X546Y484D01*
D02*
X840Y884D02*
X839Y484D01*
D02*
X839Y1259D02*
X840Y884D01*
D02*
X840Y884D02*
X802Y884D01*
D02*
X825Y1302D02*
X839Y1259D01*
D02*
X489Y884D02*
X530Y884D01*
D02*
X403Y713D02*
X489Y884D01*
D02*
X239Y609D02*
X639Y609D01*
D02*
X639Y609D02*
X640Y1084D01*
D02*
X239Y609D02*
X259Y750D01*
D02*
X640Y1084D02*
X598Y1084D01*
D02*
X240Y284D02*
X239Y609D01*
D02*
X312Y211D02*
X240Y284D01*
D02*
X580Y1303D02*
X490Y1284D01*
D02*
X490Y1284D02*
X488Y1134D01*
D02*
X488Y1134D02*
X535Y1103D01*
D02*
X339Y1186D02*
X538Y1007D01*
D02*
X239Y1159D02*
X239Y1559D01*
D02*
X239Y1559D02*
X308Y1611D01*
D02*
X253Y1117D02*
X239Y1159D01*
D02*
X528Y713D02*
X549Y754D01*
D02*
X314Y1243D02*
X314Y1275D01*
D02*
X640Y1187D02*
X735Y1108D01*
D02*
X463Y1734D02*
X369Y1658D01*
D02*
X639Y1734D02*
X463Y1734D01*
D02*
X638Y1634D02*
X639Y1734D01*
D02*
X797Y1364D02*
X638Y1634D01*
D02*
X697Y1364D02*
X558Y1601D01*
D02*
X681Y1326D02*
X647Y1318D01*
D02*
X539Y284D02*
X539Y223D01*
D02*
X339Y284D02*
X539Y284D01*
D02*
X289Y334D02*
X339Y284D01*
D02*
X289Y559D02*
X289Y334D01*
D02*
X689Y559D02*
X289Y559D01*
D02*
X689Y559D02*
X688Y958D01*
D02*
X688Y958D02*
X728Y972D01*
D02*
X737Y606D02*
X689Y559D01*
D02*
X531Y895D02*
X296Y973D01*
D02*
X78Y734D02*
X40Y734D01*
D02*
X40Y734D02*
X40Y358D01*
D02*
X40Y358D02*
X82Y331D01*
D02*
X742Y303D02*
X589Y84D01*
D02*
X589Y84D02*
X439Y84D01*
D02*
X439Y84D02*
X366Y157D01*
D02*
X188Y660D02*
X145Y631D01*
D02*
X188Y810D02*
X188Y660D01*
D02*
X38Y808D02*
X188Y810D01*
D02*
X40Y1008D02*
X38Y808D01*
D02*
X188Y1010D02*
X40Y1008D01*
D02*
X188Y1010D02*
X190Y1208D01*
D02*
X190Y1208D02*
X145Y1240D01*
D02*
X232Y995D02*
X188Y1010D01*
D02*
X231Y895D02*
X148Y923D01*
D02*
X40Y1134D02*
X40Y1334D01*
D02*
X40Y1334D02*
X102Y1523D01*
D02*
X78Y1134D02*
X40Y1134D01*
D02*
X421Y484D02*
X482Y484D01*
G54D19*
X145Y1529D02*
X83Y1529D01*
X83Y1591D01*
X145Y1591D01*
X145Y1529D01*
D02*
X145Y579D02*
X83Y579D01*
X83Y641D01*
X145Y641D01*
X145Y579D01*
D02*
X733Y364D02*
X795Y364D01*
X795Y302D01*
X733Y302D01*
X733Y364D01*
D02*
X786Y1307D02*
X786Y1362D01*
X841Y1362D01*
X841Y1307D01*
X786Y1307D01*
D02*
G54D20*
X572Y1601D02*
X505Y1601D01*
X505Y1668D01*
X572Y1668D01*
X572Y1601D01*
D02*
X305Y218D02*
X372Y218D01*
X372Y151D01*
X305Y151D01*
X305Y218D01*
D02*
G54D21*
X544Y1812D02*
X548Y1812D01*
X543Y1811D02*
X549Y1811D01*
X542Y1810D02*
X550Y1810D01*
X542Y1809D02*
X550Y1809D01*
X541Y1808D02*
X550Y1808D01*
X541Y1807D02*
X550Y1807D01*
X541Y1806D02*
X550Y1806D01*
X541Y1805D02*
X550Y1805D01*
X541Y1804D02*
X550Y1804D01*
X541Y1803D02*
X550Y1803D01*
X541Y1802D02*
X550Y1802D01*
X541Y1801D02*
X550Y1801D01*
X541Y1800D02*
X550Y1800D01*
X541Y1799D02*
X550Y1799D01*
X541Y1798D02*
X550Y1798D01*
X308Y1797D02*
X350Y1797D01*
X541Y1797D02*
X550Y1797D01*
X306Y1796D02*
X352Y1796D01*
X541Y1796D02*
X550Y1796D01*
X306Y1795D02*
X352Y1795D01*
X541Y1795D02*
X550Y1795D01*
X305Y1794D02*
X353Y1794D01*
X541Y1794D02*
X550Y1794D01*
X305Y1793D02*
X353Y1793D01*
X541Y1793D02*
X551Y1793D01*
X305Y1792D02*
X353Y1792D01*
X524Y1792D02*
X568Y1792D01*
X305Y1791D02*
X353Y1791D01*
X523Y1791D02*
X569Y1791D01*
X305Y1790D02*
X353Y1790D01*
X522Y1790D02*
X570Y1790D01*
X305Y1789D02*
X353Y1789D01*
X522Y1789D02*
X570Y1789D01*
X305Y1788D02*
X353Y1788D01*
X522Y1788D02*
X570Y1788D01*
X305Y1787D02*
X353Y1787D01*
X522Y1787D02*
X570Y1787D01*
X305Y1786D02*
X353Y1786D01*
X522Y1786D02*
X570Y1786D01*
X306Y1785D02*
X352Y1785D01*
X522Y1785D02*
X569Y1785D01*
X307Y1784D02*
X351Y1784D01*
X523Y1784D02*
X568Y1784D01*
X309Y1783D02*
X349Y1783D01*
X526Y1783D02*
X566Y1783D01*
X541Y1782D02*
X550Y1782D01*
X541Y1781D02*
X550Y1781D01*
X541Y1780D02*
X550Y1780D01*
X541Y1779D02*
X550Y1779D01*
X541Y1778D02*
X550Y1778D01*
X541Y1777D02*
X550Y1777D01*
X541Y1776D02*
X550Y1776D01*
X541Y1775D02*
X550Y1775D01*
X541Y1774D02*
X550Y1774D01*
X541Y1773D02*
X550Y1773D01*
X541Y1772D02*
X550Y1772D01*
X541Y1771D02*
X550Y1771D01*
X541Y1770D02*
X550Y1770D01*
X541Y1769D02*
X550Y1769D01*
X541Y1768D02*
X550Y1768D01*
X541Y1767D02*
X550Y1767D01*
X542Y1766D02*
X550Y1766D01*
X542Y1765D02*
X549Y1765D01*
X544Y1764D02*
X548Y1764D01*
X375Y1512D02*
X379Y1512D01*
X408Y1512D02*
X421Y1512D01*
X447Y1512D02*
X491Y1512D01*
X374Y1511D02*
X380Y1511D01*
X408Y1511D02*
X421Y1511D01*
X446Y1511D02*
X492Y1511D01*
X373Y1510D02*
X381Y1510D01*
X408Y1510D02*
X421Y1510D01*
X445Y1510D02*
X493Y1510D01*
X372Y1509D02*
X381Y1509D01*
X407Y1509D02*
X421Y1509D01*
X445Y1509D02*
X493Y1509D01*
X372Y1508D02*
X381Y1508D01*
X407Y1508D02*
X421Y1508D01*
X445Y1508D02*
X493Y1508D01*
X372Y1507D02*
X381Y1507D01*
X406Y1507D02*
X421Y1507D01*
X445Y1507D02*
X493Y1507D01*
X372Y1506D02*
X381Y1506D01*
X406Y1506D02*
X421Y1506D01*
X445Y1506D02*
X493Y1506D01*
X372Y1505D02*
X381Y1505D01*
X405Y1505D02*
X421Y1505D01*
X445Y1505D02*
X492Y1505D01*
X372Y1504D02*
X381Y1504D01*
X405Y1504D02*
X421Y1504D01*
X446Y1504D02*
X492Y1504D01*
X372Y1503D02*
X381Y1503D01*
X404Y1503D02*
X421Y1503D01*
X448Y1503D02*
X490Y1503D01*
X372Y1502D02*
X381Y1502D01*
X404Y1502D02*
X421Y1502D01*
X464Y1502D02*
X473Y1502D01*
X372Y1501D02*
X381Y1501D01*
X404Y1501D02*
X421Y1501D01*
X464Y1501D02*
X473Y1501D01*
X372Y1500D02*
X381Y1500D01*
X403Y1500D02*
X421Y1500D01*
X464Y1500D02*
X473Y1500D01*
X372Y1499D02*
X381Y1499D01*
X403Y1499D02*
X421Y1499D01*
X464Y1499D02*
X473Y1499D01*
X372Y1498D02*
X381Y1498D01*
X402Y1498D02*
X421Y1498D01*
X464Y1498D02*
X473Y1498D01*
X372Y1497D02*
X381Y1497D01*
X402Y1497D02*
X421Y1497D01*
X464Y1497D02*
X473Y1497D01*
X372Y1496D02*
X381Y1496D01*
X401Y1496D02*
X421Y1496D01*
X464Y1496D02*
X473Y1496D01*
X372Y1495D02*
X381Y1495D01*
X401Y1495D02*
X421Y1495D01*
X464Y1495D02*
X473Y1495D01*
X372Y1494D02*
X381Y1494D01*
X400Y1494D02*
X421Y1494D01*
X464Y1494D02*
X473Y1494D01*
X372Y1493D02*
X381Y1493D01*
X400Y1493D02*
X410Y1493D01*
X412Y1493D02*
X421Y1493D01*
X464Y1493D02*
X473Y1493D01*
X372Y1492D02*
X381Y1492D01*
X400Y1492D02*
X410Y1492D01*
X412Y1492D02*
X421Y1492D01*
X464Y1492D02*
X473Y1492D01*
X372Y1491D02*
X381Y1491D01*
X399Y1491D02*
X409Y1491D01*
X412Y1491D02*
X421Y1491D01*
X464Y1491D02*
X473Y1491D01*
X372Y1490D02*
X381Y1490D01*
X399Y1490D02*
X409Y1490D01*
X412Y1490D02*
X421Y1490D01*
X464Y1490D02*
X473Y1490D01*
X372Y1489D02*
X381Y1489D01*
X398Y1489D02*
X408Y1489D01*
X412Y1489D02*
X421Y1489D01*
X464Y1489D02*
X473Y1489D01*
X372Y1488D02*
X381Y1488D01*
X398Y1488D02*
X408Y1488D01*
X412Y1488D02*
X421Y1488D01*
X464Y1488D02*
X473Y1488D01*
X372Y1487D02*
X381Y1487D01*
X397Y1487D02*
X408Y1487D01*
X412Y1487D02*
X421Y1487D01*
X464Y1487D02*
X473Y1487D01*
X372Y1486D02*
X381Y1486D01*
X397Y1486D02*
X407Y1486D01*
X412Y1486D02*
X421Y1486D01*
X464Y1486D02*
X473Y1486D01*
X372Y1485D02*
X381Y1485D01*
X397Y1485D02*
X407Y1485D01*
X412Y1485D02*
X421Y1485D01*
X464Y1485D02*
X473Y1485D01*
X372Y1484D02*
X381Y1484D01*
X396Y1484D02*
X406Y1484D01*
X412Y1484D02*
X421Y1484D01*
X464Y1484D02*
X473Y1484D01*
X372Y1483D02*
X381Y1483D01*
X396Y1483D02*
X406Y1483D01*
X412Y1483D02*
X421Y1483D01*
X464Y1483D02*
X473Y1483D01*
X372Y1482D02*
X381Y1482D01*
X395Y1482D02*
X405Y1482D01*
X412Y1482D02*
X421Y1482D01*
X464Y1482D02*
X473Y1482D01*
X372Y1481D02*
X381Y1481D01*
X395Y1481D02*
X405Y1481D01*
X412Y1481D02*
X421Y1481D01*
X464Y1481D02*
X473Y1481D01*
X372Y1480D02*
X381Y1480D01*
X394Y1480D02*
X404Y1480D01*
X412Y1480D02*
X421Y1480D01*
X464Y1480D02*
X473Y1480D01*
X372Y1479D02*
X381Y1479D01*
X394Y1479D02*
X404Y1479D01*
X412Y1479D02*
X421Y1479D01*
X464Y1479D02*
X473Y1479D01*
X372Y1478D02*
X381Y1478D01*
X393Y1478D02*
X404Y1478D01*
X412Y1478D02*
X421Y1478D01*
X464Y1478D02*
X473Y1478D01*
X372Y1477D02*
X381Y1477D01*
X393Y1477D02*
X403Y1477D01*
X412Y1477D02*
X421Y1477D01*
X464Y1477D02*
X473Y1477D01*
X372Y1476D02*
X381Y1476D01*
X393Y1476D02*
X403Y1476D01*
X412Y1476D02*
X421Y1476D01*
X464Y1476D02*
X473Y1476D01*
X372Y1475D02*
X381Y1475D01*
X392Y1475D02*
X402Y1475D01*
X412Y1475D02*
X421Y1475D01*
X464Y1475D02*
X473Y1475D01*
X372Y1474D02*
X381Y1474D01*
X392Y1474D02*
X402Y1474D01*
X412Y1474D02*
X421Y1474D01*
X464Y1474D02*
X473Y1474D01*
X372Y1473D02*
X381Y1473D01*
X391Y1473D02*
X401Y1473D01*
X412Y1473D02*
X421Y1473D01*
X464Y1473D02*
X473Y1473D01*
X372Y1472D02*
X381Y1472D01*
X391Y1472D02*
X401Y1472D01*
X412Y1472D02*
X421Y1472D01*
X464Y1472D02*
X473Y1472D01*
X372Y1471D02*
X381Y1471D01*
X390Y1471D02*
X401Y1471D01*
X412Y1471D02*
X421Y1471D01*
X464Y1471D02*
X473Y1471D01*
X372Y1470D02*
X381Y1470D01*
X390Y1470D02*
X400Y1470D01*
X412Y1470D02*
X421Y1470D01*
X464Y1470D02*
X473Y1470D01*
X372Y1469D02*
X381Y1469D01*
X390Y1469D02*
X400Y1469D01*
X412Y1469D02*
X421Y1469D01*
X464Y1469D02*
X473Y1469D01*
X372Y1468D02*
X381Y1468D01*
X389Y1468D02*
X399Y1468D01*
X412Y1468D02*
X421Y1468D01*
X464Y1468D02*
X473Y1468D01*
X372Y1467D02*
X381Y1467D01*
X389Y1467D02*
X399Y1467D01*
X412Y1467D02*
X421Y1467D01*
X464Y1467D02*
X473Y1467D01*
X372Y1466D02*
X381Y1466D01*
X388Y1466D02*
X398Y1466D01*
X412Y1466D02*
X421Y1466D01*
X464Y1466D02*
X473Y1466D01*
X372Y1465D02*
X381Y1465D01*
X388Y1465D02*
X398Y1465D01*
X412Y1465D02*
X421Y1465D01*
X464Y1465D02*
X473Y1465D01*
X372Y1464D02*
X381Y1464D01*
X387Y1464D02*
X397Y1464D01*
X412Y1464D02*
X421Y1464D01*
X464Y1464D02*
X473Y1464D01*
X372Y1463D02*
X381Y1463D01*
X387Y1463D02*
X397Y1463D01*
X412Y1463D02*
X421Y1463D01*
X464Y1463D02*
X473Y1463D01*
X372Y1462D02*
X381Y1462D01*
X386Y1462D02*
X397Y1462D01*
X412Y1462D02*
X421Y1462D01*
X464Y1462D02*
X473Y1462D01*
X372Y1461D02*
X381Y1461D01*
X386Y1461D02*
X396Y1461D01*
X412Y1461D02*
X421Y1461D01*
X464Y1461D02*
X473Y1461D01*
X372Y1460D02*
X381Y1460D01*
X386Y1460D02*
X396Y1460D01*
X412Y1460D02*
X421Y1460D01*
X464Y1460D02*
X473Y1460D01*
X372Y1459D02*
X381Y1459D01*
X385Y1459D02*
X395Y1459D01*
X412Y1459D02*
X421Y1459D01*
X464Y1459D02*
X473Y1459D01*
X372Y1458D02*
X381Y1458D01*
X385Y1458D02*
X395Y1458D01*
X412Y1458D02*
X421Y1458D01*
X464Y1458D02*
X473Y1458D01*
X372Y1457D02*
X381Y1457D01*
X384Y1457D02*
X394Y1457D01*
X412Y1457D02*
X421Y1457D01*
X464Y1457D02*
X473Y1457D01*
X372Y1456D02*
X381Y1456D01*
X384Y1456D02*
X394Y1456D01*
X412Y1456D02*
X421Y1456D01*
X464Y1456D02*
X473Y1456D01*
X372Y1455D02*
X381Y1455D01*
X383Y1455D02*
X394Y1455D01*
X412Y1455D02*
X421Y1455D01*
X464Y1455D02*
X473Y1455D01*
X372Y1454D02*
X381Y1454D01*
X383Y1454D02*
X393Y1454D01*
X412Y1454D02*
X421Y1454D01*
X464Y1454D02*
X473Y1454D01*
X372Y1453D02*
X393Y1453D01*
X412Y1453D02*
X421Y1453D01*
X464Y1453D02*
X473Y1453D01*
X372Y1452D02*
X392Y1452D01*
X412Y1452D02*
X421Y1452D01*
X464Y1452D02*
X473Y1452D01*
X372Y1451D02*
X392Y1451D01*
X412Y1451D02*
X421Y1451D01*
X464Y1451D02*
X473Y1451D01*
X372Y1450D02*
X391Y1450D01*
X412Y1450D02*
X421Y1450D01*
X464Y1450D02*
X473Y1450D01*
X372Y1449D02*
X391Y1449D01*
X412Y1449D02*
X421Y1449D01*
X464Y1449D02*
X473Y1449D01*
X372Y1448D02*
X390Y1448D01*
X412Y1448D02*
X421Y1448D01*
X464Y1448D02*
X473Y1448D01*
X372Y1447D02*
X390Y1447D01*
X412Y1447D02*
X421Y1447D01*
X464Y1447D02*
X473Y1447D01*
X372Y1446D02*
X390Y1446D01*
X412Y1446D02*
X421Y1446D01*
X464Y1446D02*
X473Y1446D01*
X372Y1445D02*
X389Y1445D01*
X412Y1445D02*
X421Y1445D01*
X464Y1445D02*
X474Y1445D01*
X372Y1444D02*
X389Y1444D01*
X412Y1444D02*
X421Y1444D01*
X447Y1444D02*
X491Y1444D01*
X372Y1443D02*
X388Y1443D01*
X412Y1443D02*
X421Y1443D01*
X446Y1443D02*
X492Y1443D01*
X372Y1442D02*
X388Y1442D01*
X412Y1442D02*
X421Y1442D01*
X445Y1442D02*
X493Y1442D01*
X372Y1441D02*
X387Y1441D01*
X412Y1441D02*
X421Y1441D01*
X445Y1441D02*
X493Y1441D01*
X372Y1440D02*
X387Y1440D01*
X412Y1440D02*
X421Y1440D01*
X445Y1440D02*
X493Y1440D01*
X372Y1439D02*
X386Y1439D01*
X412Y1439D02*
X421Y1439D01*
X445Y1439D02*
X493Y1439D01*
X372Y1438D02*
X386Y1438D01*
X412Y1438D02*
X421Y1438D01*
X445Y1438D02*
X493Y1438D01*
X372Y1437D02*
X386Y1437D01*
X413Y1437D02*
X420Y1437D01*
X445Y1437D02*
X492Y1437D01*
X372Y1436D02*
X385Y1436D01*
X414Y1436D02*
X419Y1436D01*
X446Y1436D02*
X492Y1436D01*
X372Y1435D02*
X385Y1435D01*
X415Y1435D02*
X418Y1435D01*
X448Y1435D02*
X490Y1435D01*
X359Y410D02*
X408Y410D01*
X434Y410D02*
X438Y410D01*
X474Y410D02*
X478Y410D01*
X524Y410D02*
X532Y410D01*
X359Y409D02*
X408Y409D01*
X433Y409D02*
X439Y409D01*
X472Y409D02*
X479Y409D01*
X522Y409D02*
X534Y409D01*
X359Y408D02*
X408Y408D01*
X432Y408D02*
X440Y408D01*
X472Y408D02*
X480Y408D01*
X521Y408D02*
X536Y408D01*
X359Y407D02*
X408Y407D01*
X432Y407D02*
X440Y407D01*
X471Y407D02*
X480Y407D01*
X520Y407D02*
X537Y407D01*
X359Y406D02*
X408Y406D01*
X431Y406D02*
X441Y406D01*
X471Y406D02*
X480Y406D01*
X519Y406D02*
X538Y406D01*
X359Y405D02*
X408Y405D01*
X431Y405D02*
X441Y405D01*
X471Y405D02*
X480Y405D01*
X518Y405D02*
X539Y405D01*
X359Y404D02*
X408Y404D01*
X431Y404D02*
X441Y404D01*
X471Y404D02*
X480Y404D01*
X517Y404D02*
X539Y404D01*
X359Y403D02*
X408Y403D01*
X431Y403D02*
X441Y403D01*
X471Y403D02*
X480Y403D01*
X517Y403D02*
X540Y403D01*
X359Y402D02*
X408Y402D01*
X431Y402D02*
X441Y402D01*
X471Y402D02*
X480Y402D01*
X516Y402D02*
X540Y402D01*
X359Y401D02*
X408Y401D01*
X431Y401D02*
X441Y401D01*
X471Y401D02*
X480Y401D01*
X516Y401D02*
X541Y401D01*
X359Y400D02*
X368Y400D01*
X379Y400D02*
X388Y400D01*
X399Y400D02*
X408Y400D01*
X431Y400D02*
X441Y400D01*
X471Y400D02*
X480Y400D01*
X515Y400D02*
X526Y400D01*
X530Y400D02*
X541Y400D01*
X359Y399D02*
X368Y399D01*
X379Y399D02*
X388Y399D01*
X399Y399D02*
X408Y399D01*
X431Y399D02*
X441Y399D01*
X471Y399D02*
X480Y399D01*
X515Y399D02*
X525Y399D01*
X531Y399D02*
X542Y399D01*
X359Y398D02*
X368Y398D01*
X379Y398D02*
X388Y398D01*
X399Y398D02*
X408Y398D01*
X431Y398D02*
X441Y398D01*
X471Y398D02*
X480Y398D01*
X514Y398D02*
X525Y398D01*
X532Y398D02*
X542Y398D01*
X359Y397D02*
X368Y397D01*
X379Y397D02*
X388Y397D01*
X399Y397D02*
X408Y397D01*
X431Y397D02*
X441Y397D01*
X471Y397D02*
X480Y397D01*
X514Y397D02*
X524Y397D01*
X532Y397D02*
X543Y397D01*
X359Y396D02*
X368Y396D01*
X379Y396D02*
X388Y396D01*
X399Y396D02*
X408Y396D01*
X431Y396D02*
X441Y396D01*
X471Y396D02*
X480Y396D01*
X513Y396D02*
X524Y396D01*
X533Y396D02*
X543Y396D01*
X360Y395D02*
X368Y395D01*
X379Y395D02*
X388Y395D01*
X400Y395D02*
X407Y395D01*
X431Y395D02*
X441Y395D01*
X471Y395D02*
X480Y395D01*
X513Y395D02*
X523Y395D01*
X533Y395D02*
X544Y395D01*
X361Y394D02*
X367Y394D01*
X379Y394D02*
X388Y394D01*
X400Y394D02*
X407Y394D01*
X431Y394D02*
X441Y394D01*
X471Y394D02*
X480Y394D01*
X512Y394D02*
X523Y394D01*
X534Y394D02*
X544Y394D01*
X362Y393D02*
X366Y393D01*
X379Y393D02*
X388Y393D01*
X402Y393D02*
X405Y393D01*
X431Y393D02*
X441Y393D01*
X471Y393D02*
X480Y393D01*
X512Y393D02*
X522Y393D01*
X534Y393D02*
X545Y393D01*
X379Y392D02*
X388Y392D01*
X431Y392D02*
X441Y392D01*
X471Y392D02*
X480Y392D01*
X511Y392D02*
X522Y392D01*
X535Y392D02*
X545Y392D01*
X379Y391D02*
X388Y391D01*
X431Y391D02*
X441Y391D01*
X471Y391D02*
X480Y391D01*
X511Y391D02*
X521Y391D01*
X535Y391D02*
X546Y391D01*
X379Y390D02*
X388Y390D01*
X431Y390D02*
X441Y390D01*
X471Y390D02*
X480Y390D01*
X510Y390D02*
X520Y390D01*
X536Y390D02*
X546Y390D01*
X379Y389D02*
X388Y389D01*
X431Y389D02*
X441Y389D01*
X471Y389D02*
X480Y389D01*
X510Y389D02*
X520Y389D01*
X536Y389D02*
X547Y389D01*
X379Y388D02*
X388Y388D01*
X431Y388D02*
X441Y388D01*
X471Y388D02*
X480Y388D01*
X509Y388D02*
X519Y388D01*
X537Y388D02*
X547Y388D01*
X379Y387D02*
X388Y387D01*
X431Y387D02*
X441Y387D01*
X471Y387D02*
X480Y387D01*
X509Y387D02*
X519Y387D01*
X537Y387D02*
X548Y387D01*
X379Y386D02*
X388Y386D01*
X431Y386D02*
X441Y386D01*
X471Y386D02*
X480Y386D01*
X508Y386D02*
X518Y386D01*
X538Y386D02*
X548Y386D01*
X379Y385D02*
X388Y385D01*
X431Y385D02*
X441Y385D01*
X471Y385D02*
X480Y385D01*
X508Y385D02*
X518Y385D01*
X538Y385D02*
X549Y385D01*
X379Y384D02*
X388Y384D01*
X431Y384D02*
X441Y384D01*
X471Y384D02*
X480Y384D01*
X507Y384D02*
X517Y384D01*
X539Y384D02*
X549Y384D01*
X379Y383D02*
X388Y383D01*
X431Y383D02*
X441Y383D01*
X471Y383D02*
X480Y383D01*
X507Y383D02*
X517Y383D01*
X539Y383D02*
X550Y383D01*
X379Y382D02*
X388Y382D01*
X431Y382D02*
X441Y382D01*
X471Y382D02*
X480Y382D01*
X506Y382D02*
X516Y382D01*
X540Y382D02*
X550Y382D01*
X379Y381D02*
X388Y381D01*
X431Y381D02*
X441Y381D01*
X471Y381D02*
X480Y381D01*
X506Y381D02*
X516Y381D01*
X540Y381D02*
X551Y381D01*
X379Y380D02*
X388Y380D01*
X431Y380D02*
X441Y380D01*
X471Y380D02*
X480Y380D01*
X505Y380D02*
X515Y380D01*
X541Y380D02*
X551Y380D01*
X379Y379D02*
X388Y379D01*
X431Y379D02*
X441Y379D01*
X471Y379D02*
X480Y379D01*
X505Y379D02*
X515Y379D01*
X541Y379D02*
X551Y379D01*
X379Y378D02*
X388Y378D01*
X431Y378D02*
X441Y378D01*
X471Y378D02*
X480Y378D01*
X505Y378D02*
X514Y378D01*
X542Y378D02*
X552Y378D01*
X379Y377D02*
X388Y377D01*
X431Y377D02*
X441Y377D01*
X471Y377D02*
X480Y377D01*
X504Y377D02*
X514Y377D01*
X542Y377D02*
X552Y377D01*
X379Y376D02*
X388Y376D01*
X431Y376D02*
X441Y376D01*
X471Y376D02*
X480Y376D01*
X504Y376D02*
X514Y376D01*
X543Y376D02*
X552Y376D01*
X379Y375D02*
X388Y375D01*
X431Y375D02*
X441Y375D01*
X471Y375D02*
X480Y375D01*
X504Y375D02*
X513Y375D01*
X543Y375D02*
X552Y375D01*
X379Y374D02*
X388Y374D01*
X431Y374D02*
X441Y374D01*
X471Y374D02*
X480Y374D01*
X504Y374D02*
X513Y374D01*
X543Y374D02*
X552Y374D01*
X379Y373D02*
X388Y373D01*
X431Y373D02*
X441Y373D01*
X471Y373D02*
X480Y373D01*
X504Y373D02*
X513Y373D01*
X543Y373D02*
X552Y373D01*
X379Y372D02*
X388Y372D01*
X431Y372D02*
X441Y372D01*
X471Y372D02*
X480Y372D01*
X504Y372D02*
X513Y372D01*
X543Y372D02*
X553Y372D01*
X379Y371D02*
X388Y371D01*
X431Y371D02*
X441Y371D01*
X471Y371D02*
X480Y371D01*
X504Y371D02*
X513Y371D01*
X543Y371D02*
X552Y371D01*
X379Y370D02*
X388Y370D01*
X431Y370D02*
X441Y370D01*
X471Y370D02*
X480Y370D01*
X504Y370D02*
X513Y370D01*
X543Y370D02*
X552Y370D01*
X379Y369D02*
X388Y369D01*
X431Y369D02*
X441Y369D01*
X471Y369D02*
X480Y369D01*
X504Y369D02*
X513Y369D01*
X543Y369D02*
X552Y369D01*
X379Y368D02*
X388Y368D01*
X431Y368D02*
X441Y368D01*
X471Y368D02*
X480Y368D01*
X504Y368D02*
X514Y368D01*
X543Y368D02*
X552Y368D01*
X379Y367D02*
X388Y367D01*
X431Y367D02*
X441Y367D01*
X471Y367D02*
X480Y367D01*
X504Y367D02*
X514Y367D01*
X542Y367D02*
X552Y367D01*
X379Y366D02*
X388Y366D01*
X431Y366D02*
X441Y366D01*
X471Y366D02*
X480Y366D01*
X505Y366D02*
X514Y366D01*
X542Y366D02*
X552Y366D01*
X379Y365D02*
X388Y365D01*
X431Y365D02*
X441Y365D01*
X471Y365D02*
X480Y365D01*
X505Y365D02*
X515Y365D01*
X542Y365D02*
X552Y365D01*
X379Y364D02*
X388Y364D01*
X431Y364D02*
X441Y364D01*
X471Y364D02*
X480Y364D01*
X505Y364D02*
X515Y364D01*
X541Y364D02*
X551Y364D01*
X379Y363D02*
X388Y363D01*
X431Y363D02*
X441Y363D01*
X471Y363D02*
X480Y363D01*
X506Y363D02*
X516Y363D01*
X541Y363D02*
X551Y363D01*
X379Y362D02*
X388Y362D01*
X431Y362D02*
X441Y362D01*
X471Y362D02*
X480Y362D01*
X506Y362D02*
X516Y362D01*
X540Y362D02*
X550Y362D01*
X379Y361D02*
X388Y361D01*
X431Y361D02*
X441Y361D01*
X471Y361D02*
X480Y361D01*
X507Y361D02*
X517Y361D01*
X540Y361D02*
X550Y361D01*
X379Y360D02*
X388Y360D01*
X431Y360D02*
X441Y360D01*
X471Y360D02*
X480Y360D01*
X507Y360D02*
X517Y360D01*
X539Y360D02*
X549Y360D01*
X379Y359D02*
X388Y359D01*
X431Y359D02*
X441Y359D01*
X471Y359D02*
X480Y359D01*
X508Y359D02*
X518Y359D01*
X539Y359D02*
X549Y359D01*
X379Y358D02*
X388Y358D01*
X431Y358D02*
X441Y358D01*
X471Y358D02*
X480Y358D01*
X508Y358D02*
X518Y358D01*
X538Y358D02*
X548Y358D01*
X379Y357D02*
X388Y357D01*
X431Y357D02*
X441Y357D01*
X471Y357D02*
X480Y357D01*
X509Y357D02*
X519Y357D01*
X538Y357D02*
X548Y357D01*
X379Y356D02*
X388Y356D01*
X431Y356D02*
X441Y356D01*
X471Y356D02*
X480Y356D01*
X509Y356D02*
X519Y356D01*
X537Y356D02*
X547Y356D01*
X379Y355D02*
X388Y355D01*
X431Y355D02*
X441Y355D01*
X471Y355D02*
X480Y355D01*
X510Y355D02*
X520Y355D01*
X537Y355D02*
X547Y355D01*
X379Y354D02*
X388Y354D01*
X431Y354D02*
X441Y354D01*
X471Y354D02*
X480Y354D01*
X510Y354D02*
X520Y354D01*
X536Y354D02*
X546Y354D01*
X379Y353D02*
X388Y353D01*
X431Y353D02*
X441Y353D01*
X471Y353D02*
X480Y353D01*
X511Y353D02*
X521Y353D01*
X536Y353D02*
X546Y353D01*
X379Y352D02*
X388Y352D01*
X431Y352D02*
X441Y352D01*
X471Y352D02*
X480Y352D01*
X511Y352D02*
X521Y352D01*
X535Y352D02*
X545Y352D01*
X379Y351D02*
X388Y351D01*
X431Y351D02*
X441Y351D01*
X471Y351D02*
X480Y351D01*
X512Y351D02*
X522Y351D01*
X535Y351D02*
X545Y351D01*
X379Y350D02*
X388Y350D01*
X431Y350D02*
X441Y350D01*
X471Y350D02*
X480Y350D01*
X512Y350D02*
X522Y350D01*
X534Y350D02*
X544Y350D01*
X379Y349D02*
X388Y349D01*
X431Y349D02*
X441Y349D01*
X471Y349D02*
X480Y349D01*
X513Y349D02*
X523Y349D01*
X534Y349D02*
X544Y349D01*
X379Y348D02*
X388Y348D01*
X431Y348D02*
X441Y348D01*
X471Y348D02*
X480Y348D01*
X513Y348D02*
X523Y348D01*
X533Y348D02*
X543Y348D01*
X379Y347D02*
X388Y347D01*
X432Y347D02*
X441Y347D01*
X471Y347D02*
X480Y347D01*
X513Y347D02*
X524Y347D01*
X533Y347D02*
X543Y347D01*
X379Y346D02*
X388Y346D01*
X432Y346D02*
X441Y346D01*
X471Y346D02*
X480Y346D01*
X514Y346D02*
X524Y346D01*
X532Y346D02*
X542Y346D01*
X379Y345D02*
X388Y345D01*
X432Y345D02*
X442Y345D01*
X470Y345D02*
X480Y345D01*
X514Y345D02*
X525Y345D01*
X531Y345D02*
X542Y345D01*
X379Y344D02*
X388Y344D01*
X432Y344D02*
X443Y344D01*
X469Y344D02*
X480Y344D01*
X515Y344D02*
X525Y344D01*
X531Y344D02*
X541Y344D01*
X379Y343D02*
X388Y343D01*
X432Y343D02*
X446Y343D01*
X466Y343D02*
X479Y343D01*
X515Y343D02*
X541Y343D01*
X379Y342D02*
X388Y342D01*
X433Y342D02*
X479Y342D01*
X516Y342D02*
X540Y342D01*
X379Y341D02*
X388Y341D01*
X433Y341D02*
X478Y341D01*
X516Y341D02*
X540Y341D01*
X379Y340D02*
X388Y340D01*
X434Y340D02*
X478Y340D01*
X517Y340D02*
X539Y340D01*
X379Y339D02*
X388Y339D01*
X435Y339D02*
X477Y339D01*
X518Y339D02*
X539Y339D01*
X379Y338D02*
X388Y338D01*
X435Y338D02*
X476Y338D01*
X518Y338D02*
X538Y338D01*
X379Y337D02*
X388Y337D01*
X436Y337D02*
X475Y337D01*
X519Y337D02*
X537Y337D01*
X380Y336D02*
X388Y336D01*
X438Y336D02*
X474Y336D01*
X520Y336D02*
X536Y336D01*
X380Y335D02*
X387Y335D01*
X439Y335D02*
X473Y335D01*
X522Y335D02*
X535Y335D01*
X381Y334D02*
X386Y334D01*
X441Y334D02*
X471Y334D01*
X523Y334D02*
X533Y334D01*
X383Y333D02*
X384Y333D01*
X445Y333D02*
X466Y333D01*
X527Y333D02*
X529Y333D01*
X319Y65D02*
X321Y65D01*
X317Y64D02*
X322Y64D01*
X316Y63D02*
X323Y63D01*
X316Y62D02*
X324Y62D01*
X315Y61D02*
X324Y61D01*
X315Y60D02*
X324Y60D01*
X315Y59D02*
X324Y59D01*
X315Y58D02*
X324Y58D01*
X315Y57D02*
X324Y57D01*
X315Y56D02*
X324Y56D01*
X315Y55D02*
X324Y55D01*
X315Y54D02*
X324Y54D01*
X315Y53D02*
X324Y53D01*
X315Y52D02*
X324Y52D01*
X315Y51D02*
X324Y51D01*
X315Y50D02*
X324Y50D01*
X315Y49D02*
X324Y49D01*
X315Y48D02*
X324Y48D01*
X315Y47D02*
X324Y47D01*
X315Y46D02*
X324Y46D01*
X298Y45D02*
X341Y45D01*
X515Y45D02*
X558Y45D01*
X297Y44D02*
X343Y44D01*
X514Y44D02*
X559Y44D01*
X296Y43D02*
X343Y43D01*
X513Y43D02*
X560Y43D01*
X296Y42D02*
X344Y42D01*
X512Y42D02*
X561Y42D01*
X295Y41D02*
X344Y41D01*
X512Y41D02*
X561Y41D01*
X295Y40D02*
X344Y40D01*
X512Y40D02*
X561Y40D01*
X296Y39D02*
X344Y39D01*
X512Y39D02*
X561Y39D01*
X296Y38D02*
X343Y38D01*
X512Y38D02*
X561Y38D01*
X297Y37D02*
X343Y37D01*
X512Y37D02*
X561Y37D01*
X298Y36D02*
X341Y36D01*
X512Y36D02*
X561Y36D01*
X315Y35D02*
X324Y35D01*
X512Y35D02*
X561Y35D01*
X315Y34D02*
X324Y34D01*
X513Y34D02*
X560Y34D01*
X315Y33D02*
X324Y33D01*
X513Y33D02*
X560Y33D01*
X315Y32D02*
X324Y32D01*
X515Y32D02*
X559Y32D01*
X315Y31D02*
X324Y31D01*
X315Y30D02*
X324Y30D01*
X315Y29D02*
X324Y29D01*
X315Y28D02*
X324Y28D01*
X315Y27D02*
X324Y27D01*
X315Y26D02*
X324Y26D01*
X315Y25D02*
X324Y25D01*
X315Y24D02*
X324Y24D01*
X315Y23D02*
X324Y23D01*
X315Y22D02*
X324Y22D01*
X315Y21D02*
X324Y21D01*
X315Y20D02*
X324Y20D01*
X315Y19D02*
X324Y19D01*
X316Y18D02*
X323Y18D01*
X317Y17D02*
X323Y17D01*
X318Y16D02*
X321Y16D01*
D02*
G04 End of Copper0*
M02*