; NON-PLATED HOLES START AT T1
; THROUGH (PLATED) HOLES START AT T100
M48
INCH
T1C0.125984
T100C0.035000
T101C0.030000
T102C0.038000
T103C0.042000
T104C0.043307
%
T1
X001138Y017092
X007638Y001092
X001138Y001092
X007638Y017092
T100
X006138Y013092
X002638Y008842
X005638Y009842
X008138Y013342
X005638Y010842
X003138Y013092
X007138Y013342
X005638Y007842
X002638Y009842
X006138Y012092
X002638Y010842
X002638Y007842
X005638Y008842
X003138Y012092
T101
X003888Y006842
X005138Y006842
X003888Y004842
X005138Y004842
T102
X001138Y011342
X001138Y009342
X001138Y007342
T103
X007638Y009842
X007638Y010842
X007638Y006322
X007638Y008842
X001138Y003112
X001138Y012612
X007638Y003342
X001138Y006092
X001138Y015592
T104
X005388Y001842
X003388Y001842
X005388Y016342
X003388Y016342
T00
M30
