<?xml version="1.0" encoding="utf-8"?>
<!-- Generator: Adobe Illustrator 16.0.1, SVG Export Plug-In . SVG Version: 6.00 Build 0)  -->
<!DOCTYPE svg PUBLIC "-//W3C//DTD SVG 1.1//EN" "http://www.w3.org/Graphics/SVG/1.1/DTD/svg11.dtd">
<svg version="1.1" id="svg2" xmlns:svg="http://www.w3.org/2000/svg"
	 xmlns="http://www.w3.org/2000/svg" xmlns:xlink="http://www.w3.org/1999/xlink" x="0px" y="0px" width="216px" height="144px"
	 viewBox="125.5 118 216 144" enable-background="new 125.5 118 216 144" xml:space="preserve">
<g id="layer2" transform="translate(-236.9726,-55.605805)">
	<rect id="rect2164" x="424.029" y="182.378" fill="#FFFFFF" stroke="#000000" stroke-width="2" width="95.889" height="123.122"/>
	<rect id="rect2166" x="519.918" y="196.059" fill="#FFFFFF" stroke="#000000" stroke-width="2" width="13.699" height="13.68"/>
	<rect id="rect2168" x="519.918" y="222.719" fill="#FFFFFF" stroke="#000000" stroke-width="2" width="13.699" height="13.68"/>
	<rect id="rect2170" x="519.918" y="249.872" fill="#FFFFFF" stroke="#000000" stroke-width="2" width="13.699" height="13.681"/>
	<rect id="rect2172" x="519.918" y="278.139" fill="#FFFFFF" stroke="#000000" stroke-width="2" width="13.699" height="13.681"/>
	<rect id="rect2174" x="410.331" y="196.059" fill="#FFFFFF" stroke="#000000" stroke-width="2" width="13.698" height="13.68"/>
	<rect id="rect2176" x="410.331" y="222.719" fill="#FFFFFF" stroke="#000000" stroke-width="2" width="13.698" height="13.68"/>
	<rect id="rect2178" x="410.331" y="249.872" fill="#FFFFFF" stroke="#000000" stroke-width="2" width="13.698" height="13.681"/>
	<rect id="rect2180" x="410.331" y="278.139" fill="#FFFFFF" stroke="#000000" stroke-width="2" width="13.698" height="13.681"/>
	<path id="path2182" fill="#FFFFFF" stroke="#000000" stroke-width="2" d="M458.275,182.378c0,7.552,6.138,13.681,13.7,13.681
		c7.561,0,13.697-6.129,13.697-13.681H458.275z"/>
</g>
<g id="layer3" transform="translate(-236.9726,-55.605805)">
	<text transform="matrix(1.0013 0 0 1 428.7065 206.7464)" font-family="'ArialMT'" font-size="10.7053">1</text>
	<text transform="matrix(1.0013 0 0 1 428.7065 233.4056)" font-family="'ArialMT'" font-size="10.7053">2</text>
	<text transform="matrix(1.0013 0 0 1 428.7065 260.4925)" font-family="'ArialMT'" font-size="10.7053">3</text>
	<text transform="matrix(1.0013 0 0 1 428.7065 288.8109)" font-family="'ArialMT'" font-size="10.7053">4</text>
	<text transform="matrix(1.0013 0 0 1 509.8691 288.6937)" font-family="'ArialMT'" font-size="10.7053">5</text>
	<text transform="matrix(1.0013 0 0 1 509.8495 260.7494)" font-family="'ArialMT'" font-size="11.4267">6</text>
	<text transform="matrix(1.0013 0 0 1 509.8495 233.596)" font-family="'ArialMT'" font-size="11.4267">7</text>
	<text transform="matrix(1.0013 0 0 1 509.8495 206.9349)" font-family="'ArialMT'" font-size="11.4267">8</text>
</g>
<circle fill="#FFFFFF" stroke="#231F20" stroke-width="2" cx="208.425" cy="140.453" r="6.678"/>
<text transform="matrix(1 0 0 1 135.6987 151.3296)" font-family="'MyriadPro-Regular'" font-size="11.632">PIN 5</text>
<text transform="matrix(1 0 0 1 135.6987 177.8003)" font-family="'MyriadPro-Regular'" font-size="11.632">PIN 3</text>
<text transform="matrix(1 0 0 1 135.6987 204.8867)" font-family="'MyriadPro-Regular'" font-size="11.632">PIN 4</text>
<text transform="matrix(1 0 0 1 135.6987 233.2051)" font-family="'MyriadPro-Regular'" font-size="11.632">GND</text>
<text transform="matrix(1 0 0 1 309.1006 150.8984)" font-family="'MyriadPro-Regular'" font-size="11.632">VCC</text>
<text transform="matrix(1 0 0 1 309.1006 177.3696)" font-family="'MyriadPro-Regular'" font-size="11.632">PIN 2</text>
<text transform="matrix(1 0 0 1 309.1006 204.4551)" font-family="'MyriadPro-Regular'" font-size="11.632">PIN 1</text>
<text transform="matrix(1 0 0 1 309.1006 232.7754)" font-family="'MyriadPro-Regular'" font-size="11.632">PIN 0</text>
</svg>
